<svg xmlns="http://www.w3.org/2000/svg" width="21.017" height="26.392" viewBox="0 0 21.017 26.392">
  <path id="Path_57284" data-name="Path 57284" d="M29.175,2.3h-13.3a3.859,3.859,0,0,0-3.859,3.859V24.837A3.859,3.859,0,0,0,15.876,28.7h13.3a3.859,3.859,0,0,0,3.859-3.859V6.163A3.859,3.859,0,0,0,29.175,2.3ZM20.514,8.1h4.023a.772.772,0,1,1,0,1.544H20.514a.772.772,0,1,1,0-1.544Zm8.524,15.436H16.014a.772.772,0,0,1,0-1.544H29.038a.772.772,0,0,1,0,1.544Zm0-3.473H16.014a.772.772,0,0,1,0-1.544H29.038a.772.772,0,0,1,0,1.544Zm0-3.087H16.014a.772.772,0,0,1,0-1.544H29.038a.772.772,0,0,1,0,1.544Zm0-3.473H16.014a.772.772,0,0,1,0-1.544H29.038a.772.772,0,0,1,0,1.544Z" transform="translate(-12.017 -2.304)" fill="#fff"/>
</svg>
