<svg id="Group_66908" data-name="Group 66908" xmlns="http://www.w3.org/2000/svg" width="38" height="27.001" viewBox="0 0 38 27.001">
  <path id="Path_57274" data-name="Path 57274" d="M70.434,46.389l-.759-2.277a6.673,6.673,0,0,0,1.4-1.039,5.884,5.884,0,0,0,0-8.35L67.2,30.847l.519-.519a.677.677,0,0,0,0-.919l-.879-.879a.677.677,0,0,0-.919,0L56.53,37.919a.677.677,0,0,0,0,.919l.879.879a.677.677,0,0,0,.919,0l.519-.519,3.875,3.875a5.908,5.908,0,0,0,1.558,1.119l-.719,2.2a2.1,2.1,0,0,0-1.718,2.038A2.078,2.078,0,1,0,65.4,46.988l.719-2.237a4.966,4.966,0,0,0,1.718-.04l.719,2.237a2.071,2.071,0,1,0,3.556,1.438A2.02,2.02,0,0,0,70.434,46.389Zm-6.512,2.837a.8.8,0,1,1,.8-.8A.8.8,0,0,1,63.921,49.226Zm.28-10.268a2.8,2.8,0,1,1,2.8,2.8A2.8,2.8,0,0,1,64.2,38.958Zm5.833,10.268a.8.8,0,1,1,.8-.8A.8.8,0,0,1,70.034,49.226Z" transform="translate(-34.811 -23.503)" fill="#fff"/>
  <path id="Path_57275" data-name="Path 57275" d="M42.038,75.089a2.7,2.7,0,0,0-3.236,0l-1.279.959-.719-.559a2.158,2.158,0,0,0-2.637,0l-3.156,2.4a.159.159,0,0,0,.08.28H45.554a.185.185,0,0,0,.12-.32Z" transform="translate(-19.56 -51.245)" fill="#fff"/>
  <path id="Path_57276" data-name="Path 57276" d="M12.651,41.533c.08.439.12.719.12.719a1.161,1.161,0,0,0,1.159,1h.2a1.079,1.079,0,0,0,.679-.4l3.156,1.918-.8,1.279c-.04.08-.04.2.04.24l2.157,1.318a2.179,2.179,0,0,0,2.277-3.716l-2.157-1.279c-.08-.04-.2-.04-.24.04l-.8,1.279-3.356-2.078v-.04c0-.12-.4-2.477-.6-3.476a3.249,3.249,0,0,1,.04-.839c.12-1.358.36-3.6-1.638-4.874l-1.878-.8a8.306,8.306,0,0,0-5.114-.6c-.28.08-1,.36-3.236,3.516a1.215,1.215,0,0,0,.28,1.678,1.2,1.2,0,0,0,1.358,0L6.059,37.5c0,.04-.04.08-.04.16-.719,1.678-.439,3.676-.2,5.354a9.647,9.647,0,0,1,.16,1.638c-.679,1.279-2.437,5.234-2.517,5.394a1.42,1.42,0,0,0,.719,1.878,1.569,1.569,0,0,0,.559.12A1.353,1.353,0,0,0,6.019,51.2c0-.04,1.878-4.235,2.477-5.434a4.674,4.674,0,0,0,.16-2.517,15.369,15.369,0,0,1,1.6,2.357,27.411,27.411,0,0,1-.32,4.834,1.458,1.458,0,0,0,1.239,1.6h.16a1.389,1.389,0,0,0,1.4-1.239c.639-5.114.24-5.993.12-6.273a18.339,18.339,0,0,0-2.477-3.636c.08-.2.12-.4.2-.6Zm-1.678-2.157a19.87,19.87,0,0,1,1.279-2.8,5.459,5.459,0,0,1-.08.759,6.251,6.251,0,0,0-.04,1.478c.08.36.16.879.24,1.438ZM4.98,35.66a17.031,17.031,0,0,1,1.8-2.2,4.222,4.222,0,0,1,1.4.04,11.3,11.3,0,0,0-1.758,3.076Z" transform="translate(-2.439 -25.12)" fill="#fff"/>
  <circle id="Ellipse_2911" data-name="Ellipse 2911" cx="1.838" cy="1.838" r="1.838" transform="translate(30.349 13.616)" fill="#fff"/>
  <path id="Path_57277" data-name="Path 57277" d="M24.65,27.156a2.719,2.719,0,0,0,3.476-1.318L23.291,23.4l-.12.24A2.657,2.657,0,0,0,24.65,27.156Z" transform="translate(-14.757 -20.531)" fill="#fff"/>
  <path id="Path_57278" data-name="Path 57278" d="M24.013,18.449l5.434,2.757a.336.336,0,0,0,.439-.16h0a.336.336,0,0,0-.16-.439l-.36-.2a2.9,2.9,0,0,0-.28-2.8l-.2.4a.27.27,0,0,1-.24.16.147.147,0,0,1-.12-.04.263.263,0,0,1-.12-.36l.4-.759a.221.221,0,0,0-.12-.32l-.879-.439a.221.221,0,0,0-.32.12l-.4.8a.27.27,0,0,1-.24.16.147.147,0,0,1-.12-.04.263.263,0,0,1-.12-.36l.24-.479a2.843,2.843,0,0,0-2.557,1.4h0a.336.336,0,0,0-.439.16h0A.336.336,0,0,0,24.013,18.449Z" transform="translate(-15.279 -16.219)" fill="#fff"/>
</svg>
