<svg xmlns="http://www.w3.org/2000/svg" xmlns:xlink="http://www.w3.org/1999/xlink" width="27.328" height="24.33" viewBox="0 0 27.328 24.33">
  <defs>
    <linearGradient id="linear-gradient" x1="0.5" x2="0.5" y2="1" gradientUnits="objectBoundingBox">
      <stop offset="0" stop-color="#09c6f9"/>
      <stop offset="1" stop-color="#045de9"/>
    </linearGradient>
  </defs>
  <g id="noun_Mixer_3104928" transform="translate(55 -174.542)">
    <path id="Path_57281" data-name="Path 57281" d="M-31.466,191.3a3.805,3.805,0,0,0-1.175.186l-1.913-3.6,2.176-1.793a2.166,2.166,0,0,0,.59-.76l1.361-2.848a2.565,2.565,0,0,0-.4-2.728l-3.526-4.242a2.6,2.6,0,0,0-2.619-.9l-3.067.793c-.027.005-.055.016-.082.022l1.651,1.984a.392.392,0,0,1-.055.552.392.392,0,0,1-.552-.055l-1.76-2.121c-.022.016-.038.033-.06.049l-6.32,5.2,4.007,4.827a.392.392,0,0,1-.055.552.391.391,0,0,1-.552-.055l-3.931-4.734a2.543,2.543,0,0,0,.284,2.936l3.86,4.652-1.591,2.334-3.6-4.291a.658.658,0,0,0-.5-.235h-5.051a.653.653,0,0,0-.656.651.653.653,0,0,0,.656.651h4.756l3.641,4.346-3.526,5.172a.652.652,0,0,0,.175.907.658.658,0,0,0,.366.115.652.652,0,0,0,.541-.284l3.313-4.86,1.492,1.782a.658.658,0,0,0,.5.235h7.872a3.8,3.8,0,0,0,3.739,3.132,3.8,3.8,0,0,0,3.8-3.783A3.791,3.791,0,0,0-31.466,191.3Zm-12.841,1.3,1.585-2.329.5.6a2.488,2.488,0,0,0,3.477.465l3.16-2.6,1.793,3.362a3.776,3.776,0,0,0-1.41,2.329h-7.566Zm12.841,4.964a2.484,2.484,0,0,1-2.487-2.476,2.456,2.456,0,0,1,.787-1.8l1.126,2.11a.657.657,0,0,0,.886.268.652.652,0,0,0,.273-.88l-1.126-2.11a2.577,2.577,0,0,1,.547-.06,2.484,2.484,0,0,1,2.487,2.476A2.488,2.488,0,0,1-31.466,197.56Z" transform="translate(0 0)" fill="url(#linear-gradient)"/>
  </g>
</svg>
