<svg xmlns="http://www.w3.org/2000/svg" xmlns:xlink="http://www.w3.org/1999/xlink" width="119.042" height="118.962" viewBox="0 0 119.042 118.962">
  <defs>
    <linearGradient id="linear-gradient" x1="0.5" x2="0.5" y2="1" gradientUnits="objectBoundingBox">
      <stop offset="0" stop-color="#09c6f9"/>
      <stop offset="1" stop-color="#045de9"/>
    </linearGradient>
  </defs>
  <g id="milestone" transform="translate(0 -0.172)">
    <path id="Path_57285" data-name="Path 57285" d="M20.337,273.009,6.248,270.542l-5.226,5.226A3.487,3.487,0,0,0,0,278.234v42.235a3.488,3.488,0,0,0,3.488,3.488c1.472,0,29.148-27.52,42.732-41.113L30.428,267.135Z" transform="translate(0 -204.893)" fill="#fec632"/>
    <path id="Path_57286" data-name="Path 57286" d="M146.662,282.845,130.87,267.136V298.56C136.693,292.8,142.378,287.132,146.662,282.845Z" transform="translate(-100.443 -204.894)" fill="#ffde39"/>
    <path id="Path_57287" data-name="Path 57287" d="M379.786,22.222l-19.061-6.58c-.05-.017-.1-.029-.152-.044v21.3a3.454,3.454,0,0,0,.368-.13L380,28.733a3.487,3.487,0,0,0-.216-6.51Z" transform="translate(-276.739 -11.839)" fill="url(#linear-gradient)"/>
    <path id="Path_57288" data-name="Path 57288" d="M342.752,41.388a3.488,3.488,0,0,1-3.488-3.488V3.66a3.488,3.488,0,0,1,6.975,0V37.9A3.487,3.487,0,0,1,342.752,41.388Z" transform="translate(-260.384)" fill="#365599"/>
    <path id="Path_57289" data-name="Path 57289" d="M354.262.172h0V41.388h0A3.488,3.488,0,0,0,357.75,37.9V3.66A3.487,3.487,0,0,0,354.262.172Z" transform="translate(-271.895)" fill="#2d4e95"/>
    <path id="Path_57290" data-name="Path 57290" d="M74.21,208.38,53.015,187.185a3.487,3.487,0,0,0-4.932,0L26.871,208.4l12.695,8.943,11-7.91L66.843,220.7c4.194-4.2,7.045-7.066,7.366-7.387a3.487,3.487,0,0,0,0-4.932Z" transform="translate(-20.624 -142.748)" fill="#fff"/>
    <path id="Path_57291" data-name="Path 57291" d="M154.029,208.512l-21.195-21.195a3.466,3.466,0,0,0-1.964-.981V209.9l15.792,10.93c4.194-4.2,7.045-7.066,7.366-7.387A3.487,3.487,0,0,0,154.029,208.512Z" transform="translate(-100.443 -142.88)" fill="#e7dfdd"/>
    <path id="Path_57292" data-name="Path 57292" d="M118.02,240.2,106.59,228.768l-12.85-2.5-11.372-1.392-10.431,1.083L58.145,228.63,1.025,285.565a3.488,3.488,0,0,0,2.46,5.957l112.067.07h0a3.487,3.487,0,0,0,3.488-3.488V242.665A3.487,3.487,0,0,0,118.02,240.2Z" transform="translate(0 -172.459)" fill="#ffde39"/>
    <path id="Path_57293" data-name="Path 57293" d="M389.916,240.2l-11.431-11.431-12.85-2.5-11.372-1.392h0v66.7l33.185.021h0a3.487,3.487,0,0,0,3.488-3.488V242.665A3.49,3.49,0,0,0,389.916,240.2Z" transform="translate(-271.896 -172.459)" fill="#fec632"/>
    <path id="Path_57294" data-name="Path 57294" d="M274.4,167.49l11.23,7.91,12.9-9.084-21.79-21.79a3.487,3.487,0,0,0-4.928,0l-21.727,21.657,13.091,9.222Z" transform="translate(-191.937 -110.007)" fill="#fff"/>
    <path id="Path_57295" data-name="Path 57295" d="M356.694,144.53a3.476,3.476,0,0,0-2.432-1.02v24.053l.1-.068,11.23,7.91,12.9-9.084Z" transform="translate(-271.895 -110.011)" fill="#e7dfdd"/>
  </g>
</svg>
