<svg xmlns="http://www.w3.org/2000/svg" xmlns:xlink="http://www.w3.org/1999/xlink" width="33.333" height="40" viewBox="0 0 33.333 40">
  <defs>
    <linearGradient id="linear-gradient" x1="0.5" x2="0.5" y2="1" gradientUnits="objectBoundingBox">
      <stop offset="0" stop-color="#09c6f9"/>
      <stop offset="1" stop-color="#045de9"/>
    </linearGradient>
  </defs>
  <g id="noun_PDF_1658745" transform="translate(-12.5 -5)">
    <path id="Path_57296" data-name="Path 57296" d="M47.906,49.32a3.654,3.654,0,0,0-.8.07v5.143a3.3,3.3,0,0,0,.618.035,2.437,2.437,0,0,0,2.659-2.753A2.254,2.254,0,0,0,47.906,49.32Z" transform="translate(-19.223 -24.622)" fill="url(#linear-gradient)"/>
    <path id="Path_57297" data-name="Path 57297" d="M33.925,50.422c0-.723-.5-1.155-1.388-1.155a3.017,3.017,0,0,0-.735.07v2.321a2.735,2.735,0,0,0,.595.046C33.342,51.7,33.925,51.226,33.925,50.422Z" transform="translate(-10.724 -24.593)" fill="url(#linear-gradient)"/>
    <path id="Path_57298" data-name="Path 57298" d="M35.562,6.254A3.607,3.607,0,0,0,32.536,5H15.16c-1.909,0-2.66.75-2.66,2.66V42.34c0,1.909.75,2.66,2.66,2.66H43.174c1.91,0,2.66-.75,2.66-2.66V18.3a3.608,3.608,0,0,0-1.254-3.027Zm7.945,35.711c0,.509-.2.709-.709.709H15.536c-.509,0-.709-.2-.709-.709v-8.6H43.507ZM19.318,31.252V23.5a14.547,14.547,0,0,1,2.4-.163,3.775,3.775,0,0,1,2.4.629,2.3,2.3,0,0,1,.84,1.82,2.511,2.511,0,0,1-.723,1.866,3.644,3.644,0,0,1-2.554.828,4.507,4.507,0,0,1-.606-.035v2.811Zm6.776-.036V23.5a15.871,15.871,0,0,1,2.4-.163,5.059,5.059,0,0,1,3.219.84,3.478,3.478,0,0,1,1.329,2.963,3.986,3.986,0,0,1-1.306,3.184,5.641,5.641,0,0,1-3.627,1.015A15.378,15.378,0,0,1,26.094,31.216Zm12.724-4.572v1.446H35.995v3.161H34.21v-7.86h4.8v1.458h-3.02v1.8h2.823Zm4.689-5.34H14.826V8.035c0-.509.2-.709.709-.709H33.245c.254,0,.355.1.355.354v6.894c0,1.909.75,2.66,2.659,2.66h6.894c.255,0,.355.1.355.355Z" fill="url(#linear-gradient)"/>
  </g>
</svg>
