<svg xmlns="http://www.w3.org/2000/svg" xmlns:xlink="http://www.w3.org/1999/xlink" width="29.476" height="28.24" viewBox="0 0 29.476 28.24">
  <defs>
    <linearGradient id="linear-gradient" x1="0.5" x2="0.5" y2="1" gradientUnits="objectBoundingBox">
      <stop offset="0" stop-color="#09c6f9"/>
      <stop offset="1" stop-color="#045de9"/>
    </linearGradient>
  </defs>
  <g id="noun_Construction_2354092" transform="translate(-0.017 -0.004)">
    <g id="Group_66910" data-name="Group 66910" transform="translate(0.017 0.004)">
      <path id="Path_57280" data-name="Path 57280" d="M21.645,10.926a7.708,7.708,0,0,1,1.885.782,2.077,2.077,0,0,1,.236-.283A2.026,2.026,0,0,1,26.63,14.29a2,2,0,0,1-.282.236,7.7,7.7,0,0,1,.782,1.885,2.026,2.026,0,1,1,0,3.985,7.693,7.693,0,0,1-.782,1.885,2.052,2.052,0,0,1,.282.236,2.026,2.026,0,0,1-2.864,2.864,2.058,2.058,0,0,1-.236-.283,7.687,7.687,0,0,1-1.885.782,2,2,0,0,1,.033.366,2.026,2.026,0,0,1-4.051,0,2,2,0,0,1,.033-.366,7.693,7.693,0,0,1-1.885-.782,1.983,1.983,0,0,1-.236.283,2.025,2.025,0,1,1-2.581-3.1,7.7,7.7,0,0,1-.782-1.885,2.025,2.025,0,1,1,0-3.985,7.7,7.7,0,0,1,.782-1.885,2.025,2.025,0,1,1,2.581-3.1,2.084,2.084,0,0,1,.236.283,7.7,7.7,0,0,1,1.885-.782,2,2,0,0,1-.033-.366,2.026,2.026,0,0,1,4.051,0A2,2,0,0,1,21.645,10.926ZM12.712,6.371a.285.285,0,0,1-.442.064L10.591,4.864a.287.287,0,0,1-.053-.369,2.123,2.123,0,0,0-2.1-3.233c-.285.04-.541-.421-.26-.611,3.468-2.345,7.294,2.409,7.47,2.631a.284.284,0,0,1,.068.183l.013.935,1.22.065a.285.285,0,0,1,.2.1L18.339,5.9a.287.287,0,0,1,0,.4L15.872,8.844a.287.287,0,0,1-.4-.025L14.19,7.378a.287.287,0,0,1-.058-.323C14.466,6.328,13.234,5.479,12.712,6.371Zm-1.454.175-.924-.924L.695,13.828a1.681,1.681,0,1,0,2.357,2.357l8.206-9.638Zm8.395,6.993A4.864,4.864,0,1,0,24.516,18.4,4.864,4.864,0,0,0,19.652,13.539Z" transform="translate(-0.017 -0.004)" fill="url(#linear-gradient)"/>
    </g>
  </g>
</svg>
