<svg xmlns="http://www.w3.org/2000/svg" xmlns:xlink="http://www.w3.org/1999/xlink" width="28.002" height="26.756" viewBox="0 0 28.002 26.756">
  <defs>
    <linearGradient id="linear-gradient" x1="0.5" x2="0.5" y2="1" gradientUnits="objectBoundingBox">
      <stop offset="0" stop-color="#09c6f9"/>
      <stop offset="1" stop-color="#045de9"/>
    </linearGradient>
  </defs>
  <g id="Icon" transform="translate(0.002 -0.622)">
    <path id="Icon_Shape" data-name="Icon Shape" d="M.157,26.029A1.539,1.539,0,0,1,.2,24.593l10.5-18.3a1.287,1.287,0,0,1,.8-.622,1.173,1.173,0,0,1,.963.191l6.882,4.9L25.681.609A1.2,1.2,0,0,1,27.452.251a1.426,1.426,0,0,1,.529.905,1.53,1.53,0,0,1-.206,1.055L20.737,13.477A1.2,1.2,0,0,1,19,13.859L12.159,8.992,2.348,26.1a1.246,1.246,0,0,1-1.075.653H1.264A1.251,1.251,0,0,1,.157,26.029Zm18.752-.979-7.976-6.857-1.54-.425,1.437-2.506.977.271a1.214,1.214,0,0,1,.473.252L19.627,22.1l6.248-6.247a1.188,1.188,0,0,1,1.8.1A1.5,1.5,0,0,1,28,16.969a1.468,1.468,0,0,1-.418.972l-7.039,7.042a1.185,1.185,0,0,1-1.635.067ZM.968,15.449a1.423,1.423,0,0,1-.921-1.706,1.263,1.263,0,0,1,1.535-1.023l2.73.75L2.875,15.975Z" transform="translate(-0.002 0.622)" fill="url(#linear-gradient)"/>
  </g>
</svg>
