<svg width="34" height="45" viewBox="0 0 34 45" fill="none" xmlns="http://www.w3.org/2000/svg">
<path d="M16.1828 22.4499C15.9144 22.4432 15.6461 22.4689 15.3828 22.5265V28.1556C15.5873 28.1896 15.7942 28.2024 16.0008 28.1939C16.3674 28.2343 16.7375 28.1833 17.0834 28.0445C17.4293 27.9058 17.742 27.6831 17.9979 27.3931C18.2538 27.1031 18.4464 26.7533 18.561 26.3701C18.6757 25.9869 18.7094 25.5803 18.6598 25.1807C18.6978 24.8137 18.66 24.4421 18.5492 24.0933C18.4384 23.7444 18.2574 23.4272 18.0197 23.1651C17.782 22.903 17.4935 22.7027 17.1756 22.5789C16.8576 22.4551 16.5184 22.411 16.1828 22.4499Z" fill="#FFF62B"/>
<path d="M10.7011 23.6879C10.7011 22.8965 10.2011 22.4237 9.31312 22.4237C9.06618 22.4162 8.81934 22.4419 8.57812 22.5003V25.0407C8.77419 25.0812 8.97371 25.098 9.17312 25.091C10.1181 25.0866 10.7011 24.5678 10.7011 23.6879Z" fill="#FFF62B"/>
<path d="M23.062 2.26277C22.6924 1.78886 22.2255 1.41743 21.6996 1.17888C21.1736 0.940329 20.6036 0.841424 20.036 0.890254H2.66C0.751 0.890254 0 1.71114 0 3.80166V41.7593C0 43.8488 0.75 44.6707 2.66 44.6707H30.674C32.584 44.6707 33.334 43.8499 33.334 41.7593V15.4473C33.3787 14.8259 33.2884 14.2018 33.0704 13.6259C32.8525 13.0501 32.5131 12.5389 32.08 12.1342L23.062 2.26277ZM31.007 41.3489C31.007 41.906 30.807 42.1249 30.298 42.1249H3.036C2.527 42.1249 2.327 41.906 2.327 41.3489V31.9361H31.007V41.3489ZM6.818 29.6234V21.1387C7.61213 21.0068 8.41487 20.9472 9.218 20.9603C10.066 20.8873 10.9117 21.1299 11.618 21.6488C11.8863 21.8899 12.1012 22.1944 12.2467 22.5394C12.3922 22.8843 12.4644 23.2609 12.458 23.6408C12.4718 24.0173 12.4148 24.3929 12.2904 24.7442C12.166 25.0955 11.977 25.4151 11.735 25.6831C11.0201 26.33 10.1067 26.6541 9.181 26.5894C8.97844 26.5916 8.77598 26.5788 8.575 26.5511V29.6278L6.818 29.6234ZM13.594 29.584V21.1387C14.3887 21.0129 15.191 20.9533 15.994 20.9603C17.131 20.8608 18.2654 21.1848 19.213 21.8797C19.6589 22.2612 20.013 22.7559 20.2445 23.321C20.4761 23.8862 20.5782 24.5046 20.542 25.1228C20.576 25.7735 20.4763 26.4244 20.2503 27.0274C20.0243 27.6305 19.6777 28.1705 19.236 28.6077C18.179 29.4219 16.8986 29.814 15.609 29.7186C14.9354 29.7221 14.2622 29.6771 13.594 29.584ZM26.318 24.5799V26.1625H23.495V29.6223H21.71V21.0194H26.51V22.6152H23.49V24.5854H26.313L26.318 24.5799ZM31.007 18.7352H2.326V4.2121C2.326 3.65499 2.526 3.43609 3.035 3.43609H20.745C20.999 3.43609 21.1 3.54554 21.1 3.82355V11.3691C21.1 13.4585 21.85 14.2805 23.759 14.2805H30.653C30.908 14.2805 31.008 14.39 31.008 14.6691L31.007 18.7352Z" fill="#FFF62B"/>
</svg>
