<svg xmlns="http://www.w3.org/2000/svg" xmlns:xlink="http://www.w3.org/1999/xlink" width="33.136" height="28.24" viewBox="0 0 33.136 28.24">
  <defs>
    <linearGradient id="linear-gradient" x1="0.5" x2="0.5" y2="1" gradientUnits="objectBoundingBox">
      <stop offset="0" stop-color="#09c6f9"/>
      <stop offset="1" stop-color="#045de9"/>
    </linearGradient>
  </defs>
  <g id="noun_Construction_2743639" transform="translate(-20 -42)">
    <g id="Group_66909" data-name="Group 66909" transform="translate(20 42)">
      <path id="Path_57279" data-name="Path 57279" d="M38.865,70.24A2.991,2.991,0,0,0,41.8,67.3V66.061a7.047,7.047,0,0,0-6.1-6.891l-4.067,5.761V62.107l.678-1.13H29.489l.565,1.13v2.824L26.1,59.17A7.047,7.047,0,0,0,20,66.061V67.3a2.991,2.991,0,0,0,2.937,2.937ZM50.387,50.246a3.077,3.077,0,0,0-3.163,4.744l-.452.452,1.581,1.92.678-.9a3.245,3.245,0,0,0,3.389-1.13,3.188,3.188,0,0,0,.452-3.276l-1.356,1.694-1.92.113-.452-2.033.791-1.017ZM44.4,58.154l-1.92,2.259c-1.13,1.243,1.469,3.276,2.485,1.807l1.13-1.694Zm-1.92-7.907a2.941,2.941,0,0,1,2.937,1.13,3.065,3.065,0,0,1,.226,3.615l4.744,5.422c1.13,1.243-1.469,3.276-2.485,1.807l-4.067-5.761a3.245,3.245,0,0,1-3.389-1.13,3.188,3.188,0,0,1-.452-3.276l1.243,1.694,2.033.113.452-2.033-.791-1.017ZM23.728,50.7h0a7.029,7.029,0,0,1,4.406-6.665v5.761h.9V42.9a.831.831,0,0,1,.9-.9h1.92a.831.831,0,0,1,.9.9v6.891h.9V44.033A7.029,7.029,0,0,1,38.074,50.7h0a.891.891,0,0,1,.9.9v.339H36.605v2.711c0,6.778-11.409,6.778-11.409,0V51.941H22.824V51.6A.891.891,0,0,1,23.728,50.7Zm11.635,1.243H26.439v2.711c0,5.083,8.924,5.083,8.924,0Z" transform="translate(-20 -42)" fill-rule="evenodd" fill="url(#linear-gradient)"/>
    </g>
  </g>
</svg>
