<svg id="Group_67821" data-name="Group 67821" xmlns="http://www.w3.org/2000/svg" xmlns:xlink="http://www.w3.org/1999/xlink" width="36" height="36" viewBox="0 0 36 36">
  <defs>
    <linearGradient id="linear-gradient" x1="0.5" x2="0.5" y2="1" gradientUnits="objectBoundingBox">
      <stop offset="0" stop-color="#09c6f9"/>
      <stop offset="1" stop-color="#045de9"/>
    </linearGradient>
  </defs>
  <g id="Oval" stroke="#efc73c" stroke-miterlimit="10" stroke-width="0.5" fill="url(#linear-gradient)">
    <circle cx="18" cy="18" r="18" stroke="none"/>
    <circle cx="18" cy="18" r="17.75" fill="none"/>
  </g>
  <g id="noun_Mixer_3104932_1_" data-name="noun_Mixer_3104932 (1)" transform="translate(62.008 -167.986)">
    <g id="Group_66799" data-name="Group 66799" transform="translate(-55.008 176.986)">
      <path id="Path_57258" data-name="Path 57258" d="M-33.692,186.288a.9.9,0,0,0-.09-.38l-2.592-5.24a.855.855,0,0,0-.773-.483h-3.2a1.159,1.159,0,0,0-1.251,1.179v6.376c0,.2-.1.2-.154.2h-.871V182.7a.33.33,0,0,0-.009-.064l.577-1.666a.309.309,0,0,0-.06-.307l-1.192-1.341a.309.309,0,0,0-.132-.085l-1.4-.483a.314.314,0,0,0-.2-.359l-1.99-.688a.331.331,0,0,0-.239.013.3.3,0,0,0-.141.141l-1.879-.649a.551.551,0,0,0-.081-.017l-3.263-.209a.306.306,0,0,0-.312.209l-2.046,5.919a.316.316,0,0,0,.115.359l2.695,1.862a.237.237,0,0,0,.073.038l.342.12v2.443h-.512a.837.837,0,0,0-.837.867v3.686a.869.869,0,0,0,.871.867.867.867,0,0,0,.542-.2,2.7,2.7,0,0,0,2.746,2.622,2.712,2.712,0,0,0,2.746-2.622.857.857,0,0,0,.542.2h4.587a.867.867,0,0,0,.542-.2,2.7,2.7,0,0,0,2.746,2.622,2.7,2.7,0,0,0,2.746-2.614.838.838,0,0,0,.538.192.863.863,0,0,0,.615-.256.877.877,0,0,0,.252-.615Zm-9.011-5.347-1.926,5.573-1.5.269-1.315-.453,2.413-6.987,1.315.457Zm-5.42,5.441-1.4-.487,2.588-7.5,1.4.487Zm-6.2-3.284,1.888-5.475,2.99.188,1.836.636-2.413,6.987-1.836-.636Zm3.186,2.609.914.316a.314.314,0,0,0,.2.359l1.99.688a.287.287,0,0,0,.1.017.3.3,0,0,0,.137-.03.3.3,0,0,0,.141-.141l1.4.483a.287.287,0,0,0,.1.017.243.243,0,0,0,.056,0l1.764-.316a.316.316,0,0,0,.239-.205l.854-2.473v3.519h-7.9Zm2.178,9.494a2.123,2.123,0,0,1-2.17-2.067,2.139,2.139,0,0,1,1.875-2.046,2.278,2.278,0,0,1,.295-.021c.1,0,.2.013.295.021a2.135,2.135,0,0,1,1.875,2.046A2.1,2.1,0,0,1-48.96,195.2Zm11.159,0a2.123,2.123,0,0,1-2.17-2.067,2.135,2.135,0,0,1,1.875-2.046,2.278,2.278,0,0,1,.295-.021c.1,0,.2.013.3.021a2.135,2.135,0,0,1,1.871,2.046A2.1,2.1,0,0,1-37.8,195.2Zm3.489-2.507a.3.3,0,0,1-.483-.124,3.2,3.2,0,0,0-3.007-2.08,3.182,3.182,0,0,0-3.007,2.08.3.3,0,0,1-.278.209h-4.591a.3.3,0,0,1-.278-.209,3.182,3.182,0,0,0-3.007-2.08,3.182,3.182,0,0,0-3.007,2.08.3.3,0,0,1-.286.209.3.3,0,0,1-.286-.3V188.8a.288.288,0,0,1,.29-.29h10.792a.43.43,0,0,0,.431-.431v-6.641a.677.677,0,0,1,.675-.679h3.2a.3.3,0,0,1,.261.162l2.592,5.24a.269.269,0,0,1,.03.128l.038,6.2A.328.328,0,0,1-34.312,192.695Z" transform="translate(55.008 -176.986)" fill="#efc73c"/>
      <path id="Path_57259" data-name="Path 57259" d="M282.316,277.357a.827.827,0,0,0-.743-.457h-2.336a.638.638,0,0,0-.636.636V281a.7.7,0,0,0,.7.7H283.5a.621.621,0,0,0,.551-.9Zm1.221,3.75a.045.045,0,0,1-.038.021h-4.207a.122.122,0,0,1-.12-.12v-3.468a.058.058,0,0,1,.06-.06h2.336a.252.252,0,0,1,.226.141l1.738,3.446C283.55,281.077,283.546,281.09,283.537,281.107Z" transform="translate(-264.353 -272.633)" fill="#efc73c"/>
    </g>
  </g>
</svg>
