<svg width="34" height="41" viewBox="0 0 34 41" fill="none" xmlns="http://www.w3.org/2000/svg">
<path d="M16.1831 19.7091C15.9146 19.703 15.6463 19.7264 15.3831 19.7791V24.9221C15.5875 24.9531 15.7944 24.9648 16.0011 24.9571C16.3676 24.994 16.7377 24.9473 17.0836 24.8206C17.4295 24.6939 17.7422 24.4904 17.9982 24.2254C18.2541 23.9604 18.4466 23.6409 18.5613 23.2908C18.6759 22.9407 18.7097 22.5691 18.6601 22.2041C18.698 21.8688 18.6602 21.5293 18.5494 21.2105C18.4386 20.8918 18.2577 20.602 18.0199 20.3625C17.7822 20.1231 17.4937 19.94 17.1758 19.8269C16.8579 19.7138 16.5186 19.6736 16.1831 19.7091Z" fill="#1A1A1A"/>
<path d="M10.7009 20.8401C10.7009 20.1171 10.2009 19.6851 9.31288 19.6851C9.06594 19.6782 8.81909 19.7018 8.57788 19.7551V22.0761C8.77394 22.1131 8.97346 22.1285 9.17288 22.1221C10.1179 22.1181 10.7009 21.6441 10.7009 20.8401Z" fill="#1A1A1A"/>
<path d="M23.062 1.26509C22.6924 0.832099 22.2255 0.492749 21.6996 0.274797C21.1736 0.0568442 20.6036 -0.0335205 20.036 0.0110929H2.66C0.751 0.0110929 0 0.761093 0 2.67109V37.3511C0 39.2601 0.75 40.0111 2.66 40.0111H30.674C32.584 40.0111 33.334 39.2611 33.334 37.3511V13.3111C33.3787 12.7434 33.2884 12.1732 33.0704 11.647C32.8525 11.1209 32.5131 10.6539 32.08 10.2841L23.062 1.26509ZM31.007 36.9761C31.007 37.4851 30.807 37.6851 30.298 37.6851H3.036C2.527 37.6851 2.327 37.4851 2.327 36.9761V28.3761H31.007V36.9761ZM6.818 26.2631V18.5111C7.61213 18.3906 8.41487 18.3361 9.218 18.3481C10.066 18.2814 10.9117 18.503 11.618 18.9771C11.8863 19.1974 12.1012 19.4756 12.2467 19.7908C12.3922 20.106 12.4644 20.45 12.458 20.7971C12.4718 21.1411 12.4148 21.4842 12.2904 21.8052C12.166 22.1262 11.977 22.4182 11.735 22.6631C11.0201 23.2541 10.1067 23.5502 9.181 23.4911C8.97844 23.4931 8.77598 23.4814 8.575 23.4561V26.2671L6.818 26.2631ZM13.594 26.2271V18.5111C14.3887 18.3961 15.191 18.3416 15.994 18.3481C17.131 18.2572 18.2654 18.5532 19.213 19.1881C19.6589 19.5366 20.013 19.9886 20.2445 20.505C20.4761 21.0213 20.5782 21.5864 20.542 22.1511C20.576 22.7457 20.4763 23.3403 20.2503 23.8913C20.0243 24.4423 19.6777 24.9356 19.236 25.3351C18.179 26.079 16.8986 26.4373 15.609 26.3501C14.9354 26.3533 14.2622 26.3122 13.594 26.2271ZM26.318 21.6551V23.1011H23.495V26.2621H21.71V18.4021H26.51V19.8601H23.49V21.6601H26.313L26.318 21.6551ZM31.007 16.3151H2.326V3.04609C2.326 2.53709 2.526 2.33709 3.035 2.33709H20.745C20.999 2.33709 21.1 2.43709 21.1 2.69109V9.58509C21.1 11.4941 21.85 12.2451 23.759 12.2451H30.653C30.908 12.2451 31.008 12.3451 31.008 12.6001L31.007 16.3151Z" fill="#1A1A1A"/>
</svg>
